<?xml version="1.0" standalone="no"?>
<!DOCTYPE svg PUBLIC "-//W3C//DTD SVG 1.1//EN" "http://www.w3.org/Graphics/SVG/1.1/DTD/svg11.dtd" >
<svg xmlns="http://www.w3.org/2000/svg" xmlns:xlink="http://www.w3.org/1999/xlink" version="1.1">
<metadata>
Created by FontForge 20170731 at Mon Apr 26 01:34:36 2021
 By Aleksey,,,
Copyright (c) 1990 Adobe Systems Incorporated.  All Rights Reserved.Univers is a trademark of Linotype AG and/or its subsidiaries.
</metadata>
<defs>
<font id="UniversLT-ThinUltraCondensed" horiz-adv-x="417" >
  <font-face 
    font-family="Univers LT 39 Thin Ultra Conden"
    font-weight="100"
    font-stretch="condensed"
    units-per-em="2048"
    panose-1="0 0 0 0 0 0 0 0 0 0"
    ascent="1638"
    descent="-410"
    x-height="1028"
    cap-height="1479"
    bbox="-82 -385 2048 1767"
    underline-thickness="102"
    underline-position="-307"
    unicode-range="U+0020-FB02"
  />
<missing-glyph horiz-adv-x="229" 
 />
    <glyph glyph-name=".notdef" horiz-adv-x="229" 
 />
    <glyph glyph-name=".null" horiz-adv-x="0" 
 />
    <glyph glyph-name="nonmarkingreturn" horiz-adv-x="682" 
 />
    <glyph glyph-name="space" unicode=" " horiz-adv-x="229" 
 />
    <glyph glyph-name="exclam" unicode="!" horiz-adv-x="342" 
d="M119 1479h106l-24 -1139h-58zM127 0v106h90v-106h-90z" />
    <glyph glyph-name="quotedbl" unicode="&#x22;" horiz-adv-x="342" 
d="M45 1159v320h61v-320h-61zM236 1159v320h61v-320h-61z" />
    <glyph glyph-name="numbersign" unicode="#" horiz-adv-x="458" 
d="M188 0l64 487h-113l-63 -487h-62l64 487h-98v62h106l51 381h-100v61h108l64 488h61l-63 -488h112l64 488h61l-63 -488h98v-61h-106l-51 -381h100v-62h-109l-63 -487h-62zM260 549l51 381h-112l-52 -381h113z" />
    <glyph glyph-name="dollar" unicode="$" horiz-adv-x="458" 
d="M330 1085v244q0 55 -25 75.5t-76 20.5t-75.5 -20.5t-24.5 -75.5v-221q0 -84 33 -141l180 -322q61 -109 61 -223v-299q0 -120 -147 -131v-166h-61v166q-75 8 -107.5 39t-32.5 98v283h74v-262q0 -55 24.5 -76t75.5 -21t76 21t25 76v251q0 117 -43 191l-183 323
q-49 87 -49 203v240q0 55 37 89t103 40v164h61v-164q147 -3 147 -133v-269h-73z" />
    <glyph glyph-name="percent" unicode="%" horiz-adv-x="569" 
d="M31 795v610q0 39 24.5 60.5t67.5 21.5q86 0 92 -82v-610q0 -39 -24.5 -60.5t-67.5 -21.5t-67.5 21.5t-24.5 60.5zM162 801v598q0 43 -39 43t-39 -43v-598q0 -43 39 -43t39 43zM354 74v610q0 39 24.5 60.5t67.5 21.5q87 0 93 -82v-610q0 -39 -25 -60.5t-68 -21.5
t-67.5 21.5t-24.5 60.5zM485 80v598q0 43 -39 43q-38 0 -38 -43v-598q0 -43 38 -43q39 0 39 43zM117 -72l276 1622h58l-277 -1622h-57z" />
    <glyph glyph-name="ampersand" unicode="&#x26;" horiz-adv-x="493" 
d="M438 0l-39 127q-18 62 -22 100h-4v-47q0 -188 -168 -188q-88 0 -124 61.5t-36 194.5v266q3 122 29 180l78 166l-56 180q-22 77 -22 187v114q0 61 34 103.5t101 42.5q65 0 100 -36t35 -95v-139q0 -99 -27 -175l-94 -198l94 -297q28 -89 31 -197h4v510h62v-303
q0 -46 -3.5 -131t-4.5 -111l94 -315h-62zM119 545v-318q0 -87 22.5 -130.5t73.5 -43.5q60 0 86.5 50.5t26.5 129.5v52l-148 489l-30 -61q-31 -82 -31 -168zM270 1182v164q0 36 -16.5 57.5t-46.5 21.5q-27 0 -43.5 -22t-16.5 -53v-189q0 -61 17 -119l33 -110l47 104
q26 61 26 146z" />
    <glyph glyph-name="quotesingle" unicode="'" horiz-adv-x="229" 
d="M84 1159v320h61v-320h-61z" />
    <glyph glyph-name="parenleft" unicode="(" horiz-adv-x="266" 
d="M225 -319h-53q-98 434 -98 899t98 899h53q-69 -369 -69 -899q0 -545 69 -899z" />
    <glyph glyph-name="parenright" unicode=")" horiz-adv-x="266" 
d="M41 1479h53q99 -438 99 -899t-99 -899h-53q70 374 70 899q0 539 -70 899z" />
    <glyph glyph-name="asterisk" unicode="*" horiz-adv-x="454" 
d="M25 1253v72l172 -18l-101 141l62 31l67 -154l70 154l61 -31l-98 -141l172 18v-72l-172 19l98 -139l-61 -35l-70 155l-67 -155l-62 35l101 139z" />
    <glyph glyph-name="plus" unicode="+" horiz-adv-x="1228" 
d="M584 0v487h-488v62h488v487h61v-487h488v-62h-488v-487h-61z" />
    <glyph glyph-name="comma" unicode="," horiz-adv-x="229" 
d="M49 -160l41 266h90l-69 -266h-62z" />
    <glyph glyph-name="hyphen" unicode="-" horiz-adv-x="227" 
d="M18 487v54h191v-54h-191z" />
    <glyph glyph-name="period" unicode="." horiz-adv-x="229" 
d="M70 0v106h90v-106h-90z" />
    <glyph glyph-name="slash" unicode="/" 
d="M29 -133l299 1745h61l-299 -1745h-61z" />
    <glyph glyph-name="zero" unicode="0" horiz-adv-x="458" 
d="M70 133v1221q0 62 41 97.5t118 35.5q78 0 119 -36.5t41 -104.5v-1213q0 -68 -41 -104.5t-119 -36.5t-118.5 36.5t-40.5 104.5zM143 1335v-1192q0 -90 86 -90t86 90v1192q0 90 -86 90t-86 -90z" />
    <glyph glyph-name="one" unicode="1" horiz-adv-x="458" 
d="M211 0v1356h-4l-84 -139v110l100 152h62v-1479h-74z" />
    <glyph glyph-name="two" unicode="2" horiz-adv-x="458" 
d="M70 0v94l213 846q18 71 18 160v235q0 90 -76 90q-42 0 -57.5 -24.5t-15.5 -85.5v-189h-74v199q0 162 149 162q78 0 113 -43.5t35 -112.5v-223q0 -118 -27 -217l-217 -830h258v-61h-319z" />
    <glyph glyph-name="three" unicode="3" horiz-adv-x="458" 
d="M184 725v61h23q51 0 74.5 24.5t23.5 96.5v428q0 45 -19 67.5t-63 22.5q-40 0 -56.5 -22.5t-16.5 -67.5v-205h-74v218q0 139 147 139q156 0 156 -141v-461q0 -32 -8 -55.5t-22.5 -37t-28.5 -20.5t-33 -12v-4q102 -13 102 -138v-485q0 -68 -41 -104.5t-119 -36.5
t-118.5 36.5t-40.5 104.5v240h73v-230q3 -90 84 -90q88 0 88 90v475q0 64 -22 85.5t-82 21.5h-27z" />
    <glyph glyph-name="four" unicode="4" horiz-adv-x="458" 
d="M276 0v395h-233v101l193 983h114v-1022h86v-62h-86v-395h-74zM276 457v960h-4q-12 -109 -30 -211l-138 -749h172z" />
    <glyph glyph-name="five" unicode="5" horiz-adv-x="458" 
d="M389 831v-667q0 -83 -38 -127.5t-126 -44.5q-155 0 -155 184v199h73v-221q0 -50 23.5 -75.5t62.5 -25.5q41 0 63.5 25.5t22.5 89.5v657q0 97 -67 97q-63 0 -82.5 -55t-22.5 -228l-73 8l16 832h276v-62h-200l-21 -510l4 -4q26 80 111 80q133 0 133 -152z" />
    <glyph glyph-name="six" unicode="6" horiz-adv-x="458" 
d="M309 1094v241q0 43 -21 66.5t-61 23.5q-41 0 -62.5 -23.5t-21.5 -66.5v-434h4q9 32 39 50t74 18q70 0 99.5 -39t29.5 -113v-684q0 -67 -43 -104t-119 -37t-116.5 36.5t-40.5 104.5v1213q0 68 40.5 104.5t116.5 36.5q75 0 115.5 -36.5t40.5 -104.5v-252h-74zM315 143v670
q0 45 -21.5 69.5t-60.5 24.5q-35 0 -62.5 -32.5t-27.5 -81.5v-650q0 -43 25.5 -66.5t69.5 -23.5q37 0 57 23.5t20 66.5z" />
    <glyph glyph-name="seven" unicode="7" horiz-adv-x="458" 
d="M70 1417v62h319v-68l-172 -1411h-82l180 1417h-245z" />
    <glyph glyph-name="eight" unicode="8" horiz-adv-x="458" 
d="M70 133v563q0 54 24.5 83t63.5 34v4q-76 12 -76 125v412q0 133 145 133q150 0 150 -133v-412q-2 -59 -19.5 -89t-56.5 -36v-4q39 -5 63.5 -34t24.5 -83v-563q0 -67 -42.5 -104t-119.5 -37q-76 0 -116.5 36.5t-40.5 104.5zM303 922v428q0 39 -16.5 57t-57.5 18t-57 -18
t-16 -57v-428q0 -76 73 -76q74 0 74 76zM315 143v551q0 46 -18.5 68t-69.5 22q-48 0 -66 -22t-18 -68v-551q0 -46 18 -68t66 -22q51 0 69.5 22t18.5 68z" />
    <glyph glyph-name="nine" unicode="9" horiz-adv-x="458" 
d="M150 385v-242q0 -43 21 -66.5t60 -23.5q41 0 62.5 23.5t21.5 66.5v435h-4q-19 -68 -112 -68q-70 0 -99.5 39t-29.5 113v684q0 67 42.5 104t118.5 37t117 -36.5t41 -104.5v-1213q0 -68 -41 -104.5t-117 -36.5q-75 0 -115 36.5t-40 104.5v252h74zM143 1335v-669
q0 -45 21.5 -70t60.5 -25q35 0 62.5 33t27.5 82v649q0 43 -25 66.5t-69 23.5q-37 0 -57.5 -23.5t-20.5 -66.5z" />
    <glyph glyph-name="colon" unicode=":" horiz-adv-x="229" 
d="M70 922v106h90v-106h-90zM70 0v106h90v-106h-90z" />
    <glyph glyph-name="semicolon" unicode=";" horiz-adv-x="229" 
d="M49 -160l41 266h90l-69 -266h-62zM90 922v106h90v-106h-90z" />
    <glyph glyph-name="less" unicode="&#x3c;" horiz-adv-x="1228" 
d="M96 498v61l1037 502v-62l-975 -471l975 -475v-61z" />
    <glyph glyph-name="equal" unicode="=" horiz-adv-x="1228" 
d="M96 686v62h1037v-62h-1037zM96 289v61h1037v-61h-1037z" />
    <glyph glyph-name="greater" unicode="&#x3e;" horiz-adv-x="1228" 
d="M1133 559v-61l-1037 -506v61l975 475l-975 471v62z" />
    <glyph glyph-name="question" unicode="?" horiz-adv-x="454" 
d="M92 1135v204q0 67 34 107.5t105 40.5q87 0 122.5 -37t35.5 -137v-197q0 -104 -41 -225l-37 -111q-23 -67 -32 -107t-9 -95v-238h-73v287q0 78 58 231.5t60 231.5v245q0 90 -77 90q-38 0 -55 -21t-17 -71v-198h-74zM193 0v106h90v-106h-90z" />
    <glyph glyph-name="at" unicode="@" horiz-adv-x="1638" 
d="M1063 883q0 229 -193 229q-89 0 -166.5 -50t-127.5 -126.5t-78.5 -165.5t-28.5 -170q0 -113 57 -175.5t158 -62.5q63 0 131.5 46.5t122.5 119t89.5 168t35.5 187.5zM1124 1004l47 141h82l-194 -592q-31 -95 -31 -119q0 -30 24.5 -51t57.5 -21q93 0 180.5 74t141 192
t53.5 242q0 123 -54 227.5t-143 172.5t-201.5 105.5t-232.5 37.5q-143 0 -273 -55t-223.5 -147t-148.5 -218t-55 -262q0 -143 56.5 -267.5t152.5 -211t224.5 -136.5t270.5 -50q173 0 330.5 79.5t251.5 214.5h82q-93 -168 -276 -268t-388 -100q-169 0 -315.5 57t-249.5 156.5
t-162 239t-59 300.5q0 155 61 293.5t165 236.5t248 155t304 57q150 0 282 -45t228 -125.5t151.5 -197.5t55.5 -255q0 -109 -44.5 -216t-114 -185t-157 -126t-170.5 -48q-60 0 -97.5 37t-37.5 106h-4q-112 -143 -285 -143q-120 0 -195 88t-75 213q0 106 36.5 212t99.5 191.5
t158 139t202 53.5q95 0 157.5 -54t75.5 -128h8z" />
    <glyph glyph-name="A" unicode="A" 
d="M352 0l-47 432h-203l-45 -432h-73l166 1479h114l170 -1479h-82zM111 494h188l-51 485q-3 30 -12 107t-13.5 118.5t-9.5 104.5t-6 116h-4q-8 -73 -19.5 -222.5t-19.5 -223.5z" />
    <glyph glyph-name="B" unicode="B" horiz-adv-x="493" 
d="M68 0v1479h176q172 0 172 -158v-430q0 -59 -37 -90.5t-92 -34.5v-4q66 -3 102.5 -33t36.5 -104v-467q0 -80 -43.5 -119t-116.5 -39h-198zM150 791h88q96 0 96 104v430q0 51 -21 71.5t-80 20.5h-83v-626zM238 729h-88v-668h83q60 0 85.5 22t25.5 69v471q0 55 -26 80.5
t-80 25.5z" />
    <glyph glyph-name="C" unicode="C" 
d="M39 152v1175q0 76 46 118t128 42q81 0 123.5 -41.5t42.5 -118.5v-244h-82v232q0 110 -84 110q-43 0 -67.5 -24.5t-24.5 -67.5v-1188q0 -43 24.5 -67.5t67.5 -24.5q48 0 66 26t18 85v252h82v-264q0 -77 -42.5 -118.5t-123.5 -41.5q-82 0 -128 42t-46 118z" />
    <glyph glyph-name="D" unicode="D" horiz-adv-x="493" 
d="M68 0v1479h174q92 0 138 -38t46 -120v-1163q0 -82 -46 -120t-138 -38h-174zM150 61h83q111 0 111 91v1175q0 90 -111 90h-83v-1356z" />
    <glyph glyph-name="E" unicode="E" horiz-adv-x="378" 
d="M68 0v1479h280v-62h-198v-626h186v-62h-186v-668h212v-61h-294z" />
    <glyph glyph-name="F" unicode="F" horiz-adv-x="342" 
d="M68 0v1479h280v-62h-198v-626h190v-62h-190v-729h-82z" />
    <glyph glyph-name="G" unicode="G" horiz-adv-x="493" 
d="M262 651v62h164v-676l-10 -6q-64 -39 -168 -39q-86 0 -133 41.5t-47 118.5v1175q0 77 47 118.5t133 41.5t132 -41.5t46 -118.5v-240h-82v230q0 49 -27 78.5t-69 29.5t-70 -29.5t-28 -78.5v-1172q0 -42 28 -67t70 -25q54 0 96 25v573h-82z" />
    <glyph glyph-name="H" unicode="H" horiz-adv-x="493" 
d="M68 0v1479h82v-688h194v688h82v-1479h-82v729h-194v-729h-82z" />
    <glyph glyph-name="I" unicode="I" horiz-adv-x="229" 
d="M74 0v1479h82v-1479h-82z" />
    <glyph glyph-name="J" unicode="J" horiz-adv-x="378" 
d="M4 395h82v-250q0 -45 16.5 -68.5t55.5 -23.5q40 0 55.5 23t15.5 69v1334h82v-1336q0 -70 -42.5 -110.5t-110.5 -40.5q-69 0 -111.5 41t-42.5 110v252z" />
    <glyph glyph-name="K" unicode="K" 
d="M68 0v1479h82v-1479h-82zM365 0l-215 782l202 697h74l-203 -697l223 -782h-81z" />
    <glyph glyph-name="L" unicode="L" horiz-adv-x="378" 
d="M68 0v1479h82v-1418h215v-61h-297z" />
    <glyph glyph-name="M" unicode="M" horiz-adv-x="681" 
d="M74 0v1479h135l90 -891q29 -281 37 -527h4q19 336 39 527l94 891h135v-1479h-82v918q0 81 9 499h-5q-9 -96 -29.5 -301.5t-27.5 -284.5l-82 -831h-102l-84 823q-2 16 -16 157t-23.5 251t-13.5 186h-5q-1 -113 4 -294t5 -205v-918h-82z" />
    <glyph glyph-name="N" unicode="N" horiz-adv-x="530" 
d="M68 0v1479h122l140 -955q30 -216 67 -463h4q-20 410 -20 476v942h82v-1479h-123l-143 942q-9 62 -58 475h-4q2 -109 8.5 -260.5t6.5 -169.5v-987h-82z" />
    <glyph glyph-name="O" unicode="O" horiz-adv-x="493" 
d="M426 1327v-1175q0 -77 -46 -118.5t-132 -41.5t-133 41.5t-47 118.5v1175q0 77 47 118.5t133 41.5t132 -41.5t46 -118.5zM344 154v1171q0 49 -25.5 74.5t-70.5 25.5t-71.5 -26t-26.5 -74v-1171q0 -49 26.5 -75t71.5 -26t70.5 26t25.5 75z" />
    <glyph glyph-name="P" unicode="P" horiz-adv-x="454" 
d="M68 0v1479h184q168 0 168 -142v-483q0 -65 -43.5 -103t-124.5 -38h-102v-713h-82zM150 774h88q46 0 73 22.5t27 65.5v463q0 92 -100 92h-88v-643z" />
    <glyph glyph-name="Q" unicode="Q" horiz-adv-x="493" 
d="M68 152v1175q0 77 47 118.5t133 41.5t132 -41.5t46 -118.5v-1143q0 -51 -11 -78t-42 -49v-4q14 1 44 4.5t44 3.5h22v-61h-139l-96 -8q-86 0 -133 41.5t-47 118.5zM344 154v1173q0 47 -25.5 72.5t-70.5 25.5t-71.5 -25.5t-26.5 -72.5v-1173q0 -49 26.5 -75t71.5 -26
t70.5 26t25.5 75z" />
    <glyph glyph-name="R" unicode="R" horiz-adv-x="493" 
d="M68 0v1479h184q76 0 122 -35.5t46 -102.5v-436q0 -67 -27 -103t-100 -42v-4q127 -10 127 -133v-623h-82v623q0 46 -27.5 76t-85.5 30h-75v-729h-82zM150 791h79q109 0 109 98v436q0 92 -100 92h-88v-626z" />
    <glyph glyph-name="S" unicode="S" horiz-adv-x="428" 
d="M113 412v-269q0 -90 94 -90q53 0 76.5 21.5t23.5 72.5v254q0 55 -9.5 95.5t-33.5 95.5l-172 326q-53 100 -53 200v215q0 72 46 113t124 41q85 0 126.5 -33t41.5 -104v-265h-74v256q0 84 -88 84q-41 0 -64.5 -25t-23.5 -63v-229q0 -71 33 -141l168 -322q61 -122 61 -223
v-279q0 -74 -41.5 -112.5t-134.5 -38.5q-92 0 -133 40t-41 118v262h74z" />
    <glyph glyph-name="T" unicode="T" horiz-adv-x="344" 
d="M131 0v1417h-145v62h372v-62h-145v-1417h-82z" />
    <glyph glyph-name="U" unicode="U" horiz-adv-x="493" 
d="M344 1479h82v-1327q0 -77 -46 -118.5t-132 -41.5t-133 41.5t-47 118.5v1327h82v-1325q0 -49 26.5 -75t71.5 -26t70.5 26t25.5 75v1325z" />
    <glyph glyph-name="V" unicode="V" 
d="M154 0l-160 1479h82l98 -975q8 -88 19.5 -244t15.5 -199h4q9 80 19 229.5t16 213.5l96 975h80l-160 -1479h-110z" />
    <glyph glyph-name="W" unicode="W" horiz-adv-x="681" 
d="M461 0l-86 938q-4 40 -11 117t-11.5 125t-9 114.5t-5.5 122.5h-4q-9 -86 -18 -248.5t-15 -234.5l-82 -934h-108l-105 1479h74l59 -906q25 -424 27 -512h4q10 93 17.5 266.5t13.5 245.5l80 906h114l78 -906q30 -360 35 -512h4q4 71 11 245t14 267l67 906h72l-111 -1479
h-104z" />
    <glyph glyph-name="X" unicode="X" 
d="M156 770l-152 709h82l123 -652h4l131 652h74l-156 -709l166 -770h-82l-133 713h-4l-146 -713h-73z" />
    <glyph glyph-name="Y" unicode="Y" 
d="M211 678l127 801h82l-170 -895v-584h-82v584l-170 895h82l127 -801h4z" />
    <glyph glyph-name="Z" unicode="Z" horiz-adv-x="342" 
d="M0 0v82l250 1335h-227v62h301v-82l-250 -1336h268v-61h-342z" />
    <glyph glyph-name="bracketleft" unicode="[" horiz-adv-x="342" 
d="M92 -319v1798h209v-62h-135v-1675h135v-61h-209z" />
    <glyph glyph-name="backslash" unicode="\" 
d="M328 -133l-299 1745h61l299 -1745h-61z" />
    <glyph glyph-name="bracketright" unicode="]" horiz-adv-x="342" 
d="M250 1479v-1798h-209v61h135v1675h-135v62h209z" />
    <glyph glyph-name="asciicircum" unicode="^" horiz-adv-x="1228" 
d="M1149 551h-62l-471 866l-475 -866h-61l500 928h73z" />
    <glyph glyph-name="underscore" unicode="_" horiz-adv-x="1024" 
d="M1024 -256h-1024v102h1024v-102z" />
    <glyph glyph-name="grave" unicode="`" horiz-adv-x="192" 
d="M94 1212l-119 197h91l81 -197h-53z" />
    <glyph glyph-name="a" unicode="a" horiz-adv-x="378" 
d="M125 735h-74v197q0 104 142 104q135 0 135 -104v-932h-74v51h-4q-27 -59 -96 -59q-103 0 -103 92v391q0 72 38 107.5t132 35.5h33v297q0 60 -61 60q-68 0 -68 -60v-180zM125 463v-363q0 -47 55 -47q32 0 53 32.5t21 80.5v391h-21q-57 0 -82.5 -19.5t-25.5 -74.5z" />
    <glyph glyph-name="b" unicode="b" 
d="M68 0v1479h73v-494h4q26 51 97 51q108 0 108 -121v-794q0 -61 -29 -95t-83 -34q-40 0 -58.5 11.5t-32.5 35.5h-6v-39h-73zM141 881v-756q0 -34 24 -53t52 -19q59 0 59 72v780q0 70 -65 70q-31 0 -50.5 -30t-19.5 -64z" />
    <glyph glyph-name="c" unicode="c" horiz-adv-x="342" 
d="M229 344h74v-229q0 -56 -31.5 -89.5t-99.5 -33.5q-133 0 -133 123v798q0 123 133 123q131 0 131 -123v-206h-74v198q0 34 -12 52t-45 18q-59 0 -59 -70v-792q0 -60 59 -60q57 0 57 56v235z" />
    <glyph glyph-name="d" unicode="d" 
d="M68 121v794q0 121 108 121q70 0 96 -51h4v494h74v-1479h-74v39h-6q-14 -24 -32 -35.5t-58 -11.5q-54 0 -83 34t-29 95zM276 125v756q0 35 -19 64.5t-50 29.5q-66 0 -66 -70v-780q0 -72 60 -72q28 0 51.5 19t23.5 53z" />
    <glyph glyph-name="e" unicode="e" horiz-adv-x="378" 
d="M254 342h74v-227q0 -55 -35.5 -89t-104.5 -34q-67 0 -102 34t-35 89v798q0 58 34.5 90.5t102.5 32.5q70 0 105 -32t35 -91v-413h-203v-377q0 -70 63 -70q66 0 66 70v219zM254 561v344q0 70 -66 70q-63 0 -63 -70v-344h129z" />
    <glyph glyph-name="f" unicode="f" horiz-adv-x="227" 
d="M68 0v967h-58v61h58v350q0 55 25 78t77 23h47v-62h-33q-43 0 -43 -57v-332h76v-61h-76v-967h-73z" />
    <glyph glyph-name="g" unicode="g" 
d="M78 -117h74v-129q0 -42 13.5 -60t49.5 -18q61 0 61 86v299h-4q-20 -47 -86 -47q-118 0 -118 138v763q0 121 108 121q70 0 96 -51h4v43h74v-1270q0 -76 -31.5 -109.5t-105.5 -33.5q-70 0 -102.5 29.5t-32.5 91.5v147zM141 905v-753q0 -84 68 -84q34 0 50.5 29.5t16.5 78.5
v705q0 35 -19 64.5t-50 29.5q-66 0 -66 -70z" />
    <glyph glyph-name="h" unicode="h" 
d="M68 0v1479h73v-506h4q10 23 37.5 43t59.5 20q55 0 81.5 -27.5t26.5 -93.5v-915h-74v889q0 48 -14 67t-47 19q-28 0 -51 -30t-23 -83v-862h-73z" />
    <glyph glyph-name="i" unicode="i" horiz-adv-x="192" 
d="M59 0v1028h74v-1028h-74zM51 1303v106h90v-106h-90z" />
    <glyph glyph-name="j" unicode="j" horiz-adv-x="192" 
d="M133 1028v-1313q0 -41 -19 -66.5t-57 -25.5h-55v53h16q24 0 32.5 13.5t8.5 42.5v1296h74zM51 1303v106h90v-106h-90z" />
    <glyph glyph-name="k" unicode="k" horiz-adv-x="378" 
d="M68 0v1479h73v-1479h-73zM301 0l-160 590l154 438h74l-150 -432l156 -596h-74z" />
    <glyph glyph-name="l" unicode="l" horiz-adv-x="192" 
d="M59 0v1479h74v-1479h-74z" />
    <glyph glyph-name="m" unicode="m" horiz-adv-x="606" 
d="M57 0v1028h74v-55h4q10 23 37 43t59 20q86 0 97 -67h4q10 26 40 46.5t68 20.5q55 0 82 -27.5t27 -93.5v-915h-74v889q0 48 -14 67t-47 19q-28 0 -51 -30t-23 -83v-862h-74v899q0 41 -14.5 58.5t-46.5 17.5q-28 0 -51 -32t-23 -91v-852h-74z" />
    <glyph glyph-name="n" unicode="n" 
d="M68 0v1028h73v-55h4q10 23 37.5 43t59.5 20q55 0 81.5 -27.5t26.5 -93.5v-915h-74v889q0 48 -14 67t-47 19q-28 0 -51 -30t-23 -83v-862h-73z" />
    <glyph glyph-name="o" unicode="o" 
d="M68 125v778q0 66 37.5 99.5t103.5 33.5t103.5 -33.5t37.5 -99.5v-778q0 -60 -38.5 -96.5t-102.5 -36.5t-102.5 36.5t-38.5 96.5zM141 903v-778q0 -31 17 -51.5t51 -20.5q67 0 67 72v778q0 72 -67 72q-68 0 -68 -72z" />
    <glyph glyph-name="p" unicode="p" 
d="M68 -377v1405h73v-43h4q26 51 97 51q108 0 108 -121v-794q0 -61 -29 -95t-83 -34q-69 0 -93 47h-4v-416h-73zM141 881v-756q0 -34 24 -53t52 -19q59 0 59 72v780q0 70 -65 70q-31 0 -50.5 -30t-19.5 -64z" />
    <glyph glyph-name="q" unicode="q" 
d="M276 -377v416h-4q-11 -17 -19 -25t-26.5 -15t-46.5 -7q-54 0 -83 34t-29 95v794q0 121 108 121q70 0 96 -51h4v43h74v-1405h-74zM276 125v756q0 35 -19 64.5t-50 29.5q-66 0 -66 -70v-780q0 -72 60 -72q28 0 51.5 19t23.5 53z" />
    <glyph glyph-name="r" unicode="r" horiz-adv-x="266" 
d="M68 0v1028h73v-55h4q11 24 39 43.5t64 19.5v-61q-51 0 -79 -28.5t-28 -84.5v-862h-73z" />
    <glyph glyph-name="s" unicode="s" horiz-adv-x="342" 
d="M37 342h74v-227q0 -30 16.5 -46t44.5 -16q27 0 43 16t16 46v176q0 49 -4 77.5t-20 53.5l-121 199l-23 38q-26 48 -26 117v146q0 50 34 82t99 32q131 0 131 -118v-179h-74v166q0 70 -57 70q-59 0 -59 -70v-139q0 -59 28 -102l37 -62l96 -151q33 -54 33 -134v-204
q0 -56 -36 -88.5t-101 -32.5q-60 0 -95.5 28.5t-35.5 79.5v242z" />
    <glyph glyph-name="t" unicode="t" horiz-adv-x="266" 
d="M16 967v61h64v182l74 41v-223h90v-61h-90v-856q0 -58 43 -58h47v-61h-62q-52 0 -77 22.5t-25 77.5v875h-64z" />
    <glyph glyph-name="u" unicode="u" 
d="M350 0h-74v55h-4q-10 -23 -37 -43t-59 -20q-55 0 -81.5 27.5t-26.5 93.5v915h73v-889q0 -48 14.5 -67t47.5 -19q28 0 50.5 30t22.5 83v862h74v-1028z" />
    <glyph glyph-name="v" unicode="v" horiz-adv-x="344" 
d="M121 0l-107 1028h74l82 -983h4l82 983h74l-107 -1028h-102z" />
    <glyph glyph-name="w" unicode="w" horiz-adv-x="569" 
d="M549 1028l-82 -1028h-92l-84 967h-4l-92 -967h-93l-82 1028h74l49 -967h4l97 967h94l84 -967h4l49 967h74z" />
    <glyph glyph-name="x" unicode="x" horiz-adv-x="342" 
d="M256 0l-84 479h-4l-94 -479h-62l109 530l-109 498h74l82 -432h4l86 432h61l-102 -498l113 -530h-74z" />
    <glyph glyph-name="y" unicode="y" horiz-adv-x="342" 
d="M332 1028l-176 -1405h-62l43 369l-127 1036h74l86 -889h4l84 889h74z" />
    <glyph glyph-name="z" unicode="z" horiz-adv-x="266" 
d="M6 0v82l182 885h-170v61h242v-90l-182 -877h182v-61h-254z" />
    <glyph glyph-name="braceleft" unicode="{" horiz-adv-x="454" 
d="M70 549v61q44 0 82 38t38 100v499q0 129 30 180.5t99 51.5h66v-62h-53q-39 0 -53.5 -41t-14.5 -129v-483q0 -80 -37 -127.5t-84 -54.5v-4q47 -7 84 -55t37 -128v-483q0 -88 14.5 -129t53.5 -41h53v-61h-66q-69 0 -99 51t-30 180v500q0 62 -38 99.5t-82 37.5z" />
    <glyph glyph-name="bar" unicode="|" horiz-adv-x="454" 
d="M190 -8v1495h74v-1495h-74z" />
    <glyph glyph-name="braceright" unicode="}" horiz-adv-x="454" 
d="M70 -319v61h53q39 0 53 41t14 129v483q0 80 37 128t84 55v4q-47 7 -84 54.5t-37 127.5v483q0 88 -14 129t-53 41h-53v62h65q69 0 99 -51.5t30 -180.5v-499q0 -62 38.5 -100t82.5 -38v-61q-44 0 -82.5 -37.5t-38.5 -99.5v-500q0 -129 -30 -180t-99 -51h-65z" />
    <glyph glyph-name="asciitilde" unicode="~" horiz-adv-x="1228" 
d="M201 403l-54 46q21 33 36 53.5t38.5 45t46.5 38t56.5 23t72.5 9.5q55 0 117.5 -21.5t109 -48t104 -48t103.5 -21.5q116 0 197 154l53 -45q-52 -87 -105 -128.5t-145 -41.5q-54 0 -116 21.5t-109 48t-104.5 48t-104.5 21.5q-17 0 -33 -3t-30.5 -10.5t-25.5 -13
t-24.5 -19.5t-20 -20t-19 -23t-16 -22t-15 -23.5t-12.5 -19.5z" />
    <glyph glyph-name="nbspace" unicode="&#xa0;" horiz-adv-x="229" 
 />
    <glyph glyph-name="exclamdown" unicode="&#xa1;" horiz-adv-x="342" 
d="M225 -377h-106l24 1139h58zM127 995v107h90v-107h-90z" />
    <glyph glyph-name="cent" unicode="&#xa2;" horiz-adv-x="458" 
d="M287 702v203q0 34 -12 52t-44 18q-59 0 -59 -70v-792q0 -60 59 -60q56 0 56 56v233h73v-227q0 -65 -31 -94t-75 -29v-131h-53v131q-53 0 -78 43q-25 42 -25 100v778q0 34 11.5 60t29 38.5t33 18.5t29.5 6v117h53v-117q49 0 78 -32q28 -31 28 -78v-224h-73z" />
    <glyph glyph-name="sterling" unicode="&#xa3;" horiz-adv-x="458" 
d="M45 0v61h51v689h-65v61h65v510q0 83 45 124.5t129 41.5t129 -41.5t45 -124.5v-96h-73v96q0 54 -25 79.5t-76 24.5q-51 1 -75.5 -24.5t-24.5 -79.5v-510h104v-61h-104v-689h274v-61h-399z" />
    <glyph glyph-name="currency" unicode="&#xa4;" horiz-adv-x="458" 
d="M459 1417l-17 -78q-15 45 -57 68q-30 18 -76 18q-54 0 -82 -22q-13 -9 -19 -22.5t-6.5 -21.5t-0.5 -26v-440h164l-13 -62h-151v-143h127l-13 -61h-114v-482q0 -41 26 -67q25 -25 84 -25q46 0 80 19q32 19 55 49v-82q-35 -26 -55 -33q-34 -14 -82 -14q-81 0 -123 28
q-59 40 -59 132v475h-127l12 61h115v143h-127l12 62h115v434q0 40 9.5 69t39.5 54q45 37 133 37q51 0 94 -21q36 -18 56 -49z" />
    <glyph glyph-name="yen" unicode="&#xa5;" horiz-adv-x="458" 
d="M193 453v122l-5 21h-145v61h133l-158 822h82l127 -801h4l127 801h82l-157 -822h133v-61h-146l-4 -21v-122h150v-62h-150v-391h-73v391h-150v62h150z" />
    <glyph glyph-name="brokenbar" unicode="&#xa6;" horiz-adv-x="454" 
d="M190 -8v538h74v-538h-74zM190 948v539h74v-539h-74z" />
    <glyph glyph-name="section" unicode="&#xa7;" horiz-adv-x="454" 
d="M66 0v61q70 -8 129 -8q129 0 129 125v94q0 69 -52 115l-178 164q-37 35 -37 133v143q0 57 38 96.5t116 71.5l-64 47q-25 19 -41.5 36t-32.5 55t-16 86v90q0 77 44.5 127.5t131.5 50.5q50 0 142 -8v-62q-100 8 -133 8q-51 0 -81 -30t-30 -88v-84q0 -85 57 -127l129 -97
q24 -18 38.5 -33t28 -43t13.5 -61v-180q0 -76 -34.5 -113.5t-112.5 -66.5l80 -68q28 -24 47.5 -65.5t19.5 -89.5v-113q0 -94 -47 -134t-157 -40q-73 0 -127 8zM324 653v181q0 44 -13.5 69.5t-58.5 61.5q-72 -32 -96.5 -57.5t-24.5 -67.5v-164q0 -77 84 -139q65 30 87 53
t22 63z" />
    <glyph glyph-name="dieresis" unicode="&#xa8;" horiz-adv-x="192" 
d="M147 1303v106h91v-106h-91zM-45 1303v106h90v-106h-90z" />
    <glyph glyph-name="copyright" unicode="&#xa9;" horiz-adv-x="1638" 
d="M1229 901h-82q-22 113 -104.5 176.5t-206.5 63.5q-91 0 -163.5 -35.5t-116 -94t-66.5 -127.5t-23 -141q0 -112 41.5 -204t123 -147.5t187.5 -55.5q262 0 328 252h82q-22 -148 -132 -237t-278 -89q-193 0 -313.5 125t-120.5 354q0 216 128.5 344.5t322.5 128.5
q160 0 264.5 -79t128.5 -234zM1485 739q0 183 -90 338.5t-243 245.5t-333 90q-135 0 -257.5 -53.5t-212 -143.5t-142.5 -215t-53 -262t53 -262t142.5 -215t212 -143t257.5 -53t258 53t212.5 143t142.5 215t53 262zM72 739q0 153 59 291.5t159 238.5t238 159t291 59
t291.5 -59t238.5 -159t159 -238.5t59 -291.5t-59 -291t-159 -238t-238.5 -159t-291.5 -59t-291 59t-238 159t-159 238t-59 291z" />
    <glyph glyph-name="ordfeminine" unicode="&#xaa;" horiz-adv-x="245" 
d="M23 1305v112q0 35 22.5 52.5t75.5 17.5q59 0 81.5 -17t22.5 -53v-534h-61v12v14h-4q-16 -35 -70 -35q-36 0 -53 14t-17 48v217q0 43 29 64.5t96 21.5h19v166q0 37 -39 37q-41 0 -41 -37v-100h-61zM164 987v207h-12q-36 0 -53 -11.5t-17 -43.5v-187q0 -32 33 -32
q23 0 36 18.5t13 48.5z" />
    <glyph glyph-name="guillemotleft" unicode="&#xab;" horiz-adv-x="378" 
d="M150 0l-111 514l111 514h53l-90 -514l90 -514h-53zM287 0l-111 514l111 514h53l-90 -514l90 -514h-53z" />
    <glyph glyph-name="logicalnot" unicode="&#xac;" horiz-adv-x="1228" 
d="M1071 221v465h-975v62h1037v-527h-62z" />
    <glyph glyph-name="registered" unicode="&#xae;" horiz-adv-x="1638" 
d="M541 297v889h340q293 0 293 -248q0 -107 -65.5 -165t-172.5 -75l262 -401h-82l-262 403h-231v-403h-82zM623 774h227q112 0 177 40t65 126q0 89 -60 130.5t-162 41.5h-247v-338zM819 66q135 0 258 53t212.5 143t142.5 215t53 262q0 183 -90 338.5t-243 245.5t-333 90
q-135 0 -257.5 -53.5t-212 -143.5t-142.5 -215t-53 -262t53 -262t142.5 -215t212 -143t257.5 -53zM72 739q0 153 59 291.5t159 238.5t238 159t291 59t291.5 -59t238.5 -159t159 -238.5t59 -291.5t-59 -291t-159 -238t-238.5 -159t-291.5 -59t-291 59t-238 159t-159 238
t-59 291z" />
    <glyph glyph-name="macron" unicode="&#xaf;" horiz-adv-x="192" 
d="M-37 1290v62h266v-62h-266z" />
    <glyph glyph-name="degree" unicode="&#xb0;" horiz-adv-x="585" 
d="M88 1282q0 85 60 145t145 60t145 -60t60 -145t-60 -145t-145 -60t-145 60t-60 145zM444 1282q0 63 -44 107.5t-107 44.5t-107.5 -44.5t-44.5 -107.5t44.5 -107.5t107.5 -44.5t107 44.5t44 107.5z" />
    <glyph glyph-name="plusminus" unicode="&#xb1;" horiz-adv-x="1228" 
d="M584 639v397h61v-397h488v-61h-488v-398h-61v398h-488v61h488zM96 0v61h1037v-61h-1037z" />
    <glyph glyph-name="twosuperior" unicode="&#xb2;" horiz-adv-x="299" 
d="M37 596v55l145 506q13 45 13 96v142q0 47 -50 47q-28 0 -38.5 -14t-10.5 -46v-112h-61v119q0 48 27 73t90 25q104 0 104 -94v-133q0 -80 -16 -132l-142 -479h166v-53h-227z" />
    <glyph glyph-name="threesuperior" unicode="&#xb3;" horiz-adv-x="299" 
d="M33 817h61v-131q3 -53 56 -53q55 0 55 53v279q0 36 -14.5 47.5t-53.5 11.5h-12v45h10q33 0 48.5 14.5t15.5 55.5v247q0 56 -54 56q-47 0 -47 -56v-114h-61v131q0 84 115 84q108 0 108 -86v-277q0 -65 -74 -69v-4q16 -3 28.5 -7t25 -13t19.5 -25.5t7 -40.5v-293
q0 -84 -110 -84q-123 0 -123 84v145z" />
    <glyph glyph-name="acute" unicode="&#xb4;" horiz-adv-x="192" 
d="M45 1212l82 197h90l-119 -197h-53z" />
    <glyph glyph-name="mu" unicode="&#xb5;" 
d="M350 0h-74v55h-4q-28 -63 -77 -63q-41 0 -62 24h-4q1 -17 4.5 -50t5.5 -60.5t2 -52.5v-230h-73v1405h73v-868q0 -62 14 -84.5t48 -22.5q28 0 50.5 30t22.5 83v862h74v-1028z" />
    <glyph glyph-name="paragraph" unicode="&#xb6;" horiz-adv-x="655" 
d="M324 0v883q-39 0 -79.5 17t-78 50.5t-61 94t-23.5 137.5q0 79 24.5 137.5t67.5 92.5t96 50.5t115 16.5h209v-1479h-74v1417h-123v-1417h-73z" />
    <glyph glyph-name="periodcentered" unicode="&#xb7;" horiz-adv-x="229" 
d="M12 657q0 43 30 73t73 30t72.5 -30t29.5 -73t-29.5 -72.5t-72.5 -29.5t-73 29.5t-30 72.5z" />
    <glyph glyph-name="cedilla" unicode="&#xb8;" horiz-adv-x="192" 
d="M49 0h39l-6 -68q35 5 39 5q27 0 45 -17.5t18 -50.5q0 -39 -29.5 -63.5t-82.5 -24.5q-46 0 -58 8l4 35q24 -6 52 -6q61 0 61 47q0 35 -43 35q-34 0 -51 -11z" />
    <glyph glyph-name="onesuperior" unicode="&#xb9;" horiz-adv-x="299" 
d="M117 596v694q0 41 8 107l-8 -4l-66 -76v82l66 80h61v-883h-61z" />
    <glyph glyph-name="ordmasculine" unicode="&#xba;" horiz-adv-x="294" 
d="M41 954v453q0 80 104 80q109 0 109 -80v-453q0 -80 -109 -80q-50 0 -77 21.5t-27 58.5zM193 963v436q0 43 -48 43q-43 0 -43 -43v-436q0 -43 43 -43q48 0 48 43z" />
    <glyph glyph-name="guillemotright" unicode="&#xbb;" horiz-adv-x="378" 
d="M176 0l90 514l-90 514h53l111 -514l-111 -514h-53zM39 0l90 514l-90 514h53l111 -514l-111 -514h-53z" />
    <glyph glyph-name="onequarter" unicode="&#xbc;" horiz-adv-x="681" 
d="M537 0v221h-166v72l129 590h98v-609h64v-53h-64v-221h-61zM537 274v367q0 27 2 82t2 82v33h-4l-113 -564h113zM158 -72l276 1622h58l-277 -1622h-57zM96 596v694q0 41 8 107l-8 -4l-65 -76v82l65 80h62v-883h-62z" />
    <glyph glyph-name="onehalf" unicode="&#xbd;" horiz-adv-x="681" 
d="M127 -72l276 1622h58l-277 -1622h-57zM96 596v694q0 41 8 107l-8 -4l-65 -76v82l65 80h62v-883h-62zM424 0v55l145 506q13 45 13 96v142q0 47 -50 47q-28 0 -38.5 -14t-10.5 -46v-112h-61v119q0 48 27 73t90 25q104 0 104 -94v-133q0 -80 -16 -132l-142 -479h166v-53
h-227z" />
    <glyph glyph-name="threequarters" unicode="&#xbe;" horiz-adv-x="681" 
d="M537 0v221h-166v72l129 590h98v-609h64v-53h-64v-221h-61zM537 274v367q0 27 2 82t2 82v33h-4l-113 -564h113zM188 -72l277 1622h57l-276 -1622h-58zM25 1272v131q0 84 114 84q109 0 109 -86v-277q0 -65 -74 -69v-4q16 -3 28.5 -7t25 -13t19.5 -25.5t7 -40.5v-293
q0 -84 -111 -84q-123 0 -123 84v145h62v-131q3 -53 55 -53q56 0 56 53v279q0 36 -14.5 47.5t-53.5 11.5h-12v45h10q33 0 48 14.5t15 55.5v247q0 28 -12 42t-41 14q-47 0 -47 -56v-114h-61z" />
    <glyph glyph-name="questiondown" unicode="&#xbf;" horiz-adv-x="454" 
d="M289 -231v198h73v-205q0 -67 -34 -107t-105 -40q-87 0 -122 37t-35 137v197q0 107 40 225l37 111q23 67 32 107t9 95v238h74v-287q0 -51 -18 -115t-40 -115t-41 -115.5t-20 -117.5v-245q0 -91 78 -91q37 0 54.5 21.5t17.5 71.5zM172 995v107h90v-107h-90z" />
    <glyph glyph-name="Agrave" unicode="&#xc0;" 
d="M352 0l-47 432h-203l-45 -432h-73l166 1479h114l170 -1479h-82zM111 494h188l-51 485q-3 30 -12 107t-13.5 118.5t-9.5 104.5t-6 116h-4q-8 -73 -19.5 -222.5t-19.5 -223.5zM207 1571l-119 196h90l82 -196h-53z" />
    <glyph glyph-name="Aacute" unicode="&#xc1;" 
d="M352 0l-47 432h-203l-45 -432h-73l166 1479h114l170 -1479h-82zM111 494h188l-51 485q-3 30 -12 107t-13.5 118.5t-9.5 104.5t-6 116h-4q-8 -73 -19.5 -222.5t-19.5 -223.5zM158 1571l82 196h90l-119 -196h-53z" />
    <glyph glyph-name="Acircumflex" unicode="&#xc2;" 
d="M352 0l-47 432h-203l-45 -432h-73l166 1479h114l170 -1479h-82zM111 494h188l-51 485q-3 30 -12 107t-13.5 118.5t-9.5 104.5t-6 116h-4q-8 -73 -19.5 -222.5t-19.5 -223.5zM84 1571l94 196h62l94 -196h-62l-63 135l-64 -135h-61z" />
    <glyph glyph-name="Atilde" unicode="&#xc3;" 
d="M352 0l-47 432h-203l-45 -432h-73l166 1479h114l170 -1479h-82zM111 494h188l-51 485q-3 30 -12 107t-13.5 118.5t-9.5 104.5t-6 116h-4q-8 -73 -19.5 -222.5t-19.5 -223.5zM100 1608h-45v14q0 41 17 77t57 36q24 0 76 -31q8 -4 20.5 -10.5t20 -10.5t17 -7t16.5 -3
q20 0 29 17.5t9 38.5v10h45v-15q0 -41 -16.5 -76.5t-56.5 -35.5q-24 0 -82 30q-52 31 -72 31q-18 0 -26.5 -17.5t-8.5 -35.5v-12z" />
    <glyph glyph-name="Adieresis" unicode="&#xc4;" 
d="M352 0l-47 432h-203l-45 -432h-73l166 1479h114l170 -1479h-82zM111 494h188l-51 485q-3 30 -12 107t-13.5 118.5t-9.5 104.5t-6 116h-4q-8 -73 -19.5 -222.5t-19.5 -223.5zM260 1661v106h90v-106h-90zM68 1661v106h90v-106h-90z" />
    <glyph glyph-name="Aring" unicode="&#xc5;" 
d="M352 0l-47 432h-203l-45 -432h-73l166 1479h114l170 -1479h-82zM111 494h188l-51 485q-3 30 -12 107t-13.5 118.5t-9.5 104.5t-6 116h-4q-8 -73 -19.5 -222.5t-19.5 -223.5zM98 1655q0 46 32.5 79t78.5 33t78 -33t32 -79t-32 -78.5t-78 -32.5t-78.5 32.5t-32.5 78.5z
M143 1655q0 -28 19 -47t47 -19t46.5 19t18.5 47t-18.5 47.5t-46.5 19.5t-47 -19.5t-19 -47.5z" />
    <glyph glyph-name="AE" unicode="&#xc6;" horiz-adv-x="645" 
d="M0 0l262 1479h356v-62h-239l33 -626h188v-62h-188l32 -668h174v-61h-241l-21 432h-209l-73 -432h-74zM156 494h192l-29 923h-4z" />
    <glyph glyph-name="Ccedilla" unicode="&#xc7;" 
d="M379 416v-264q0 -77 -42.5 -118.5t-123.5 -41.5l-6 -60q35 5 39 5q28 0 45.5 -17.5t17.5 -50.5q0 -39 -29.5 -63.5t-82.5 -24.5q-46 0 -58 8l4 35q24 -6 52 -6q61 0 61 47q0 35 -43 35q-35 0 -51 -11l12 111q-64 6 -99.5 46t-35.5 106v1175q0 76 46 118t128 42
q81 0 123.5 -41.5t42.5 -118.5v-244h-82v232q0 110 -84 110q-43 0 -67.5 -24.5t-24.5 -67.5v-1188q0 -43 24.5 -67.5t67.5 -24.5q48 0 66 26t18 85v252h82z" />
    <glyph glyph-name="Egrave" unicode="&#xc8;" horiz-adv-x="378" 
d="M68 0v1479h280v-62h-198v-626h186v-62h-186v-668h212v-61h-294zM188 1571l-118 196h90l82 -196h-54z" />
    <glyph glyph-name="Eacute" unicode="&#xc9;" horiz-adv-x="378" 
d="M68 0v1479h280v-62h-198v-626h186v-62h-186v-668h212v-61h-294zM139 1571l82 196h90l-118 -196h-54z" />
    <glyph glyph-name="Ecircumflex" unicode="&#xca;" horiz-adv-x="378" 
d="M68 0v1479h280v-62h-198v-626h186v-62h-186v-668h212v-61h-294zM66 1571l94 196h61l94 -196h-61l-64 135l-63 -135h-61z" />
    <glyph glyph-name="Edieresis" unicode="&#xcb;" horiz-adv-x="378" 
d="M68 0v1479h280v-62h-198v-626h186v-62h-186v-668h212v-61h-294zM242 1661v106h90v-106h-90zM49 1661v106h90v-106h-90z" />
    <glyph glyph-name="Igrave" unicode="&#xcc;" horiz-adv-x="229" 
d="M74 0v1479h82v-1479h-82zM113 1571l-119 196h90l82 -196h-53z" />
    <glyph glyph-name="Iacute" unicode="&#xcd;" horiz-adv-x="229" 
d="M74 0v1479h82v-1479h-82zM63 1571l82 196h91l-119 -196h-54z" />
    <glyph glyph-name="Icircumflex" unicode="&#xce;" horiz-adv-x="229" 
d="M74 0v1479h82v-1479h-82zM-10 1571l94 196h61l95 -196h-62l-63 135l-64 -135h-61z" />
    <glyph glyph-name="Idieresis" unicode="&#xcf;" horiz-adv-x="229" 
d="M74 0v1479h82v-1479h-82zM166 1661v106h90v-106h-90zM-27 1661v106h90v-106h-90z" />
    <glyph glyph-name="Eth" unicode="&#xd0;" horiz-adv-x="493" 
d="M68 0v766h-68v61h68v652h174q92 0 138 -38t46 -120v-1163q0 -82 -46 -120t-138 -38h-174zM150 61h83q111 0 111 91v1175q0 90 -111 90h-83v-590h112v-61h-112v-705z" />
    <glyph glyph-name="Ntilde" unicode="&#xd1;" horiz-adv-x="530" 
d="M68 0v1479h122l140 -955q30 -216 67 -463h4q-20 410 -20 476v942h82v-1479h-123l-143 942q-9 62 -58 475h-4q2 -109 8.5 -260.5t6.5 -169.5v-987h-82zM158 1608h-45v14q0 41 16.5 77t56.5 36q24 0 76 -31q8 -4 20.5 -10.5t20 -10.5t17 -7t16.5 -3q20 0 29.5 17.5
t9.5 38.5v10h45v-15q0 -41 -17 -76.5t-57 -35.5q-24 0 -82 30q-52 31 -71 31q-18 0 -26.5 -17.5t-8.5 -35.5v-12z" />
    <glyph glyph-name="Ograve" unicode="&#xd2;" horiz-adv-x="493" 
d="M426 1327v-1175q0 -77 -46 -118.5t-132 -41.5t-133 41.5t-47 118.5v1175q0 77 47 118.5t133 41.5t132 -41.5t46 -118.5zM344 154v1171q0 49 -25.5 74.5t-70.5 25.5t-71.5 -26t-26.5 -74v-1171q0 -49 26.5 -75t71.5 -26t70.5 26t25.5 75zM246 1571l-119 196h90l82 -196
h-53z" />
    <glyph glyph-name="Oacute" unicode="&#xd3;" horiz-adv-x="493" 
d="M426 1327v-1175q0 -77 -46 -118.5t-132 -41.5t-133 41.5t-47 118.5v1175q0 77 47 118.5t133 41.5t132 -41.5t46 -118.5zM344 154v1171q0 49 -25.5 74.5t-70.5 25.5t-71.5 -26t-26.5 -74v-1171q0 -49 26.5 -75t71.5 -26t70.5 26t25.5 75zM197 1571l82 196h90l-119 -196
h-53z" />
    <glyph glyph-name="Ocircumflex" unicode="&#xd4;" horiz-adv-x="493" 
d="M426 1327v-1175q0 -77 -46 -118.5t-132 -41.5t-133 41.5t-47 118.5v1175q0 77 47 118.5t133 41.5t132 -41.5t46 -118.5zM344 154v1171q0 49 -25.5 74.5t-70.5 25.5t-71.5 -26t-26.5 -74v-1171q0 -49 26.5 -75t71.5 -26t70.5 26t25.5 75zM123 1571l94 196h62l94 -196h-62
l-63 135l-64 -135h-61z" />
    <glyph glyph-name="Otilde" unicode="&#xd5;" horiz-adv-x="493" 
d="M426 1327v-1175q0 -77 -46 -118.5t-132 -41.5t-133 41.5t-47 118.5v1175q0 77 47 118.5t133 41.5t132 -41.5t46 -118.5zM344 154v1171q0 49 -25.5 74.5t-70.5 25.5t-71.5 -26t-26.5 -74v-1171q0 -49 26.5 -75t71.5 -26t70.5 26t25.5 75zM139 1608h-45v14q0 41 17 77
t57 36q24 0 76 -31q7 -3 25 -13t28.5 -14t19.5 -4q20 0 29.5 17.5t9.5 38.5v10h45v-15q0 -41 -16.5 -76.5t-56.5 -35.5q-24 0 -82 30q-52 31 -72 31q-18 0 -26.5 -17.5t-8.5 -35.5v-12z" />
    <glyph glyph-name="Odieresis" unicode="&#xd6;" horiz-adv-x="493" 
d="M426 1327v-1175q0 -77 -46 -118.5t-132 -41.5t-133 41.5t-47 118.5v1175q0 77 47 118.5t133 41.5t132 -41.5t46 -118.5zM344 154v1171q0 49 -25.5 74.5t-70.5 25.5t-71.5 -26t-26.5 -74v-1171q0 -49 26.5 -75t71.5 -26t70.5 26t25.5 75zM299 1661v106h90v-106h-90z
M106 1661v106h91v-106h-91z" />
    <glyph glyph-name="multiply" unicode="&#xd7;" horiz-adv-x="1228" 
d="M162 111l407 407l-407 406l45 47l407 -406l406 406l47 -47l-408 -406l408 -407l-47 -45l-406 405l-407 -405z" />
    <glyph glyph-name="Oslash" unicode="&#xd8;" horiz-adv-x="493" 
d="M150 477l194 787v61q0 49 -25.5 74.5t-70.5 25.5t-71.5 -26t-26.5 -74v-721q0 -20 -5 -127h5zM395 1430l47 180h74l-90 -328v-1130q0 -77 -46 -118.5t-132 -41.5q-112 0 -156 69l-53 -192h-62l91 338v1120q0 77 47 118.5t133 41.5q99 0 147 -57zM344 154v731q0 45 4 135
h-4l-194 -772v-94q0 -49 26.5 -75t71.5 -26t70.5 26t25.5 75z" />
    <glyph glyph-name="Ugrave" unicode="&#xd9;" horiz-adv-x="493" 
d="M344 1479h82v-1327q0 -77 -46 -118.5t-132 -41.5t-133 41.5t-47 118.5v1327h82v-1325q0 -49 26.5 -75t71.5 -26t70.5 26t25.5 75v1325zM246 1571l-119 196h90l82 -196h-53z" />
    <glyph glyph-name="Uacute" unicode="&#xda;" horiz-adv-x="493" 
d="M344 1479h82v-1327q0 -77 -46 -118.5t-132 -41.5t-133 41.5t-47 118.5v1327h82v-1325q0 -49 26.5 -75t71.5 -26t70.5 26t25.5 75v1325zM197 1571l82 196h90l-119 -196h-53z" />
    <glyph glyph-name="Ucircumflex" unicode="&#xdb;" horiz-adv-x="493" 
d="M344 1479h82v-1327q0 -77 -46 -118.5t-132 -41.5t-133 41.5t-47 118.5v1327h82v-1325q0 -49 26.5 -75t71.5 -26t70.5 26t25.5 75v1325zM123 1571l94 196h62l94 -196h-62l-63 135l-64 -135h-61z" />
    <glyph glyph-name="Udieresis" unicode="&#xdc;" horiz-adv-x="493" 
d="M344 1479h82v-1327q0 -77 -46 -118.5t-132 -41.5t-133 41.5t-47 118.5v1327h82v-1325q0 -49 26.5 -75t71.5 -26t70.5 26t25.5 75v1325zM299 1661v106h90v-106h-90zM106 1661v106h91v-106h-91z" />
    <glyph glyph-name="Yacute" unicode="&#xdd;" 
d="M211 678l127 801h82l-170 -895v-584h-82v584l-170 895h82l127 -801h4zM158 1571l82 196h90l-119 -196h-53z" />
    <glyph glyph-name="Thorn" unicode="&#xde;" horiz-adv-x="454" 
d="M68 0v1479h82v-281h102q80 0 124 -46t44 -116v-442q0 -70 -44 -116t-124 -46h-102v-432h-82zM150 494h88q100 0 100 92v458q0 46 -27 69.5t-73 23.5h-88v-643z" />
    <glyph glyph-name="germandbls" unicode="&#xdf;" horiz-adv-x="454" 
d="M57 0v1341q0 146 142 146q141 0 141 -146v-315l-23 -18q-51 -40 -51 -111q0 -61 27 -127l100 -231q31 -68 31 -166v-244q0 -137 -117 -137q-68 0 -94.5 26.5t-26.5 87.5v195h62v-184q0 -34 11 -49t40 -15t40 16t11 48v264q0 33 -6 63.5t-13.5 50t-21.5 52.5l-82 188
q-34 80 -34 150q0 74 49 135l24 31v299q0 75 -67 75q-68 0 -68 -75v-1350h-74z" />
    <glyph glyph-name="agrave" unicode="&#xe0;" horiz-adv-x="378" 
d="M125 735h-74v197q0 104 142 104q135 0 135 -104v-932h-74v51h-4q-27 -59 -96 -59q-103 0 -103 92v391q0 72 38 107.5t132 35.5h33v297q0 60 -61 60q-68 0 -68 -60v-180zM125 463v-363q0 -47 55 -47q32 0 53 32.5t21 80.5v391h-21q-57 0 -82.5 -19.5t-25.5 -74.5z
M188 1212l-118 197h90l82 -197h-54z" />
    <glyph glyph-name="aacute" unicode="&#xe1;" horiz-adv-x="378" 
d="M125 735h-74v197q0 104 142 104q135 0 135 -104v-932h-74v51h-4q-27 -59 -96 -59q-103 0 -103 92v391q0 72 38 107.5t132 35.5h33v297q0 60 -61 60q-68 0 -68 -60v-180zM125 463v-363q0 -47 55 -47q32 0 53 32.5t21 80.5v391h-21q-57 0 -82.5 -19.5t-25.5 -74.5z
M139 1212l82 197h90l-118 -197h-54z" />
    <glyph glyph-name="acircumflex" unicode="&#xe2;" horiz-adv-x="378" 
d="M125 735h-74v197q0 104 142 104q135 0 135 -104v-932h-74v51h-4q-27 -59 -96 -59q-103 0 -103 92v391q0 72 38 107.5t132 35.5h33v297q0 60 -61 60q-68 0 -68 -60v-180zM125 463v-363q0 -47 55 -47q32 0 53 32.5t21 80.5v391h-21q-57 0 -82.5 -19.5t-25.5 -74.5zM66 1212
l94 197h61l94 -197h-61l-64 136l-63 -136h-61z" />
    <glyph glyph-name="atilde" unicode="&#xe3;" horiz-adv-x="378" 
d="M125 735h-74v197q0 104 142 104q135 0 135 -104v-932h-74v51h-4q-27 -59 -96 -59q-103 0 -103 92v391q0 72 38 107.5t132 35.5h33v297q0 60 -61 60q-68 0 -68 -60v-180zM125 463v-363q0 -47 55 -47q32 0 53 32.5t21 80.5v391h-21q-57 0 -82.5 -19.5t-25.5 -74.5zM82 1249
h-45v15q0 41 17 76.5t57 35.5q24 0 75 -30q8 -4 20.5 -10.5t20 -10.5t17 -7t16.5 -3q20 0 29.5 17t9.5 38v10h45v-14q0 -41 -17 -77t-57 -36q-22 0 -82 31q-52 31 -71 31q-18 0 -26.5 -17.5t-8.5 -35.5v-13z" />
    <glyph glyph-name="adieresis" unicode="&#xe4;" horiz-adv-x="378" 
d="M125 735h-74v197q0 104 142 104q135 0 135 -104v-932h-74v51h-4q-27 -59 -96 -59q-103 0 -103 92v391q0 72 38 107.5t132 35.5h33v297q0 60 -61 60q-68 0 -68 -60v-180zM125 463v-363q0 -47 55 -47q32 0 53 32.5t21 80.5v391h-21q-57 0 -82.5 -19.5t-25.5 -74.5z
M242 1303v106h90v-106h-90zM49 1303v106h90v-106h-90z" />
    <glyph glyph-name="aring" unicode="&#xe5;" horiz-adv-x="378" 
d="M125 735h-74v197q0 104 142 104q135 0 135 -104v-932h-74v51h-4q-27 -59 -96 -59q-103 0 -103 92v391q0 72 38 107.5t132 35.5h33v297q0 60 -61 60q-68 0 -68 -60v-180zM125 463v-363q0 -47 55 -47q32 0 53 32.5t21 80.5v391h-21q-57 0 -82.5 -19.5t-25.5 -74.5zM80 1296
q0 46 32.5 79.5t77.5 33.5q46 0 78.5 -33.5t32.5 -79.5t-32.5 -78t-78.5 -32t-78 32t-32 78zM125 1296q0 -28 18.5 -46.5t46.5 -18.5t47 18.5t19 46.5t-19 48t-47 20q-27 0 -46 -20t-19 -48z" />
    <glyph glyph-name="ae" unicode="&#xe6;" horiz-adv-x="569" 
d="M121 440v-329q0 -58 51 -58q33 0 54.5 32.5t21.5 80.5v360h-19q-55 0 -81.5 -18t-26.5 -68zM322 905v-317h127v317q0 70 -64 70q-63 0 -63 -70zM449 342h73v-227q0 -55 -34.5 -89t-102.5 -34q-72 0 -106 57q-30 -57 -109 -57q-123 0 -123 92v379q0 125 170 125h31v317
q0 70 -62 70q-65 0 -65 -70v-170h-74v197q0 104 139 104q71 0 105 -45q33 45 94 45q69 0 103 -32t34 -91v-387h-200v-403q0 -70 63 -70q64 0 64 70v219z" />
    <glyph glyph-name="ccedilla" unicode="&#xe7;" horiz-adv-x="342" 
d="M303 344v-229q0 -112 -115 -123l-6 -60q35 5 39 5q28 0 46 -18t18 -50q0 -39 -30 -63.5t-83 -24.5q-45 0 -57 8l4 35q24 -6 51 -6q61 0 61 47q0 35 -43 35q-34 0 -51 -11l10 103q-108 14 -108 123v798q0 123 133 123q131 0 131 -123v-206h-74v198q0 34 -12 52t-45 18
q-59 0 -59 -70v-792q0 -60 59 -60q57 0 57 56v235h74z" />
    <glyph glyph-name="egrave" unicode="&#xe8;" horiz-adv-x="378" 
d="M254 342h74v-227q0 -55 -35.5 -89t-104.5 -34q-67 0 -102 34t-35 89v798q0 58 34.5 90.5t102.5 32.5q70 0 105 -32t35 -91v-413h-203v-377q0 -70 63 -70q66 0 66 70v219zM254 561v344q0 70 -66 70q-63 0 -63 -70v-344h129zM188 1212l-118 197h90l82 -197h-54z" />
    <glyph glyph-name="eacute" unicode="&#xe9;" horiz-adv-x="378" 
d="M254 342h74v-227q0 -55 -35.5 -89t-104.5 -34q-67 0 -102 34t-35 89v798q0 58 34.5 90.5t102.5 32.5q70 0 105 -32t35 -91v-413h-203v-377q0 -70 63 -70q66 0 66 70v219zM254 561v344q0 70 -66 70q-63 0 -63 -70v-344h129zM139 1212l82 197h90l-118 -197h-54z" />
    <glyph glyph-name="ecircumflex" unicode="&#xea;" horiz-adv-x="378" 
d="M254 342h74v-227q0 -55 -35.5 -89t-104.5 -34q-67 0 -102 34t-35 89v798q0 58 34.5 90.5t102.5 32.5q70 0 105 -32t35 -91v-413h-203v-377q0 -70 63 -70q66 0 66 70v219zM254 561v344q0 70 -66 70q-63 0 -63 -70v-344h129zM66 1212l94 197h61l94 -197h-61l-64 136
l-63 -136h-61z" />
    <glyph glyph-name="edieresis" unicode="&#xeb;" horiz-adv-x="378" 
d="M254 342h74v-227q0 -55 -35.5 -89t-104.5 -34q-67 0 -102 34t-35 89v798q0 58 34.5 90.5t102.5 32.5q70 0 105 -32t35 -91v-413h-203v-377q0 -70 63 -70q66 0 66 70v219zM254 561v344q0 70 -66 70q-63 0 -63 -70v-344h129zM242 1303v106h90v-106h-90zM49 1303v106h90
v-106h-90z" />
    <glyph glyph-name="igrave" unicode="&#xec;" horiz-adv-x="192" 
d="M59 0v1028h74v-1028h-74zM94 1212l-119 197h91l81 -197h-53z" />
    <glyph glyph-name="iacute" unicode="&#xed;" horiz-adv-x="192" 
d="M59 0v1028h74v-1028h-74zM45 1212l82 197h90l-119 -197h-53z" />
    <glyph glyph-name="icircumflex" unicode="&#xee;" horiz-adv-x="192" 
d="M59 0v1028h74v-1028h-74zM-29 1212l95 197h61l94 -197h-61l-64 136l-63 -136h-62z" />
    <glyph glyph-name="idieresis" unicode="&#xef;" horiz-adv-x="192" 
d="M59 0v1028h74v-1028h-74zM147 1303v106h91v-106h-91zM-45 1303v106h90v-106h-90z" />
    <glyph glyph-name="eth" unicode="&#xf0;" 
d="M141 903v-778q0 -31 17 -51.5t51 -20.5q67 0 67 72v778q0 72 -67 72q-68 0 -68 -72zM68 125v778q0 66 36.5 99.5t98.5 33.5q46 0 80 -22q-4 117 -25 188q-25 88 -65 141l-91 -61l-32 49l88 58q-39 42 -80 65l49 33q45 -27 80 -62l88 62l33 -49l-84 -58q65 -82 88 -204
q18 -99 18 -271v-780q0 -60 -38.5 -96.5t-102.5 -36.5t-102.5 36.5t-38.5 96.5z" />
    <glyph glyph-name="ntilde" unicode="&#xf1;" 
d="M68 0v1028h73v-55h4q10 23 37.5 43t59.5 20q55 0 81.5 -27.5t26.5 -93.5v-915h-74v889q0 48 -14 67t-47 19q-28 0 -51 -30t-23 -83v-862h-73zM100 1249h-45v15q0 41 17 76.5t57 35.5q25 0 76 -30q8 -4 20.5 -10.5t20 -10.5t17 -7t16.5 -3q20 0 29 17t9 38v10h45v-14
q0 -41 -16.5 -77t-56.5 -36q-22 0 -82 31q-52 31 -72 31q-18 0 -26.5 -17.5t-8.5 -35.5v-13z" />
    <glyph glyph-name="ograve" unicode="&#xf2;" 
d="M68 125v778q0 66 37.5 99.5t103.5 33.5t103.5 -33.5t37.5 -99.5v-778q0 -60 -38.5 -96.5t-102.5 -36.5t-102.5 36.5t-38.5 96.5zM141 903v-778q0 -31 17 -51.5t51 -20.5q67 0 67 72v778q0 72 -67 72q-68 0 -68 -72zM207 1212l-119 197h90l82 -197h-53z" />
    <glyph glyph-name="oacute" unicode="&#xf3;" 
d="M68 125v778q0 66 37.5 99.5t103.5 33.5t103.5 -33.5t37.5 -99.5v-778q0 -60 -38.5 -96.5t-102.5 -36.5t-102.5 36.5t-38.5 96.5zM141 903v-778q0 -31 17 -51.5t51 -20.5q67 0 67 72v778q0 72 -67 72q-68 0 -68 -72zM158 1212l82 197h90l-119 -197h-53z" />
    <glyph glyph-name="ocircumflex" unicode="&#xf4;" 
d="M68 125v778q0 66 37.5 99.5t103.5 33.5t103.5 -33.5t37.5 -99.5v-778q0 -60 -38.5 -96.5t-102.5 -36.5t-102.5 36.5t-38.5 96.5zM141 903v-778q0 -31 17 -51.5t51 -20.5q67 0 67 72v778q0 72 -67 72q-68 0 -68 -72zM84 1212l94 197h62l94 -197h-62l-63 136l-64 -136h-61z
" />
    <glyph glyph-name="otilde" unicode="&#xf5;" 
d="M68 125v778q0 66 37.5 99.5t103.5 33.5t103.5 -33.5t37.5 -99.5v-778q0 -60 -38.5 -96.5t-102.5 -36.5t-102.5 36.5t-38.5 96.5zM141 903v-778q0 -31 17 -51.5t51 -20.5q67 0 67 72v778q0 72 -67 72q-68 0 -68 -72zM100 1249h-45v15q0 41 17 76.5t57 35.5q25 0 76 -30
q8 -4 20.5 -10.5t20 -10.5t17 -7t16.5 -3q20 0 29 17t9 38v10h45v-14q0 -41 -16.5 -77t-56.5 -36q-22 0 -82 31q-52 31 -72 31q-18 0 -26.5 -17.5t-8.5 -35.5v-13z" />
    <glyph glyph-name="odieresis" unicode="&#xf6;" 
d="M68 125v778q0 66 37.5 99.5t103.5 33.5t103.5 -33.5t37.5 -99.5v-778q0 -60 -38.5 -96.5t-102.5 -36.5t-102.5 36.5t-38.5 96.5zM141 903v-778q0 -31 17 -51.5t51 -20.5q67 0 67 72v778q0 72 -67 72q-68 0 -68 -72zM260 1303v106h90v-106h-90zM68 1303v106h90v-106h-90z
" />
    <glyph glyph-name="divide" unicode="&#xf7;" horiz-adv-x="1228" 
d="M96 487v62h1037v-62h-1037zM512 102q0 43 29.5 73t72.5 30t73 -30t30 -73t-30 -72.5t-73 -29.5t-72.5 29.5t-29.5 72.5zM512 934q0 43 29.5 72.5t72.5 29.5t73 -29.5t30 -72.5t-30 -73t-73 -30t-72.5 30t-29.5 73z" />
    <glyph glyph-name="oslash" unicode="&#xf8;" 
d="M145 342l131 541v20q0 72 -67 72q-68 0 -68 -72v-561h4zM276 125v569h-4l-131 -528v-41q0 -31 17 -51.5t51 -20.5q67 0 67 72zM309 1006l41 157h62l-64 -231q2 -12 2 -29v-778q0 -60 -38.5 -96.5t-102.5 -36.5q-69 0 -105 39l-45 -166h-53l64 235q-2 10 -2 25v778
q0 66 37.5 99.5t103.5 33.5q63 0 100 -30z" />
    <glyph glyph-name="ugrave" unicode="&#xf9;" 
d="M350 0h-74v55h-4q-10 -23 -37 -43t-59 -20q-55 0 -81.5 27.5t-26.5 93.5v915h73v-889q0 -48 14.5 -67t47.5 -19q28 0 50.5 30t22.5 83v862h74v-1028zM207 1212l-119 197h90l82 -197h-53z" />
    <glyph glyph-name="uacute" unicode="&#xfa;" 
d="M350 0h-74v55h-4q-10 -23 -37 -43t-59 -20q-55 0 -81.5 27.5t-26.5 93.5v915h73v-889q0 -48 14.5 -67t47.5 -19q28 0 50.5 30t22.5 83v862h74v-1028zM158 1212l82 197h90l-119 -197h-53z" />
    <glyph glyph-name="ucircumflex" unicode="&#xfb;" 
d="M350 0h-74v55h-4q-10 -23 -37 -43t-59 -20q-55 0 -81.5 27.5t-26.5 93.5v915h73v-889q0 -48 14.5 -67t47.5 -19q28 0 50.5 30t22.5 83v862h74v-1028zM84 1212l94 197h62l94 -197h-62l-63 136l-64 -136h-61z" />
    <glyph glyph-name="udieresis" unicode="&#xfc;" 
d="M350 0h-74v55h-4q-10 -23 -37 -43t-59 -20q-55 0 -81.5 27.5t-26.5 93.5v915h73v-889q0 -48 14.5 -67t47.5 -19q28 0 50.5 30t22.5 83v862h74v-1028zM260 1303v106h90v-106h-90zM68 1303v106h90v-106h-90z" />
    <glyph glyph-name="yacute" unicode="&#xfd;" horiz-adv-x="342" 
d="M332 1028l-176 -1405h-62l43 369l-127 1036h74l86 -889h4l84 889h74zM121 1212l82 197h90l-119 -197h-53z" />
    <glyph glyph-name="thorn" unicode="&#xfe;" 
d="M68 -377v1856h73v-494h4q26 51 97 51q108 0 108 -121v-794q0 -61 -29 -95t-83 -34q-69 0 -93 47h-4v-416h-73zM276 125v780q0 70 -65 70q-31 0 -50.5 -30t-19.5 -64v-756q0 -34 24 -53t52 -19q59 0 59 72z" />
    <glyph glyph-name="ydieresis" unicode="&#xff;" horiz-adv-x="342" 
d="M332 1028l-176 -1405h-62l43 369l-127 1036h74l86 -889h4l84 889h74zM223 1303v106h90v-106h-90zM31 1303v106h90v-106h-90z" />
    <glyph glyph-name="dotlessi" unicode="&#x131;" horiz-adv-x="192" 
d="M59 0v1028h74v-1028h-74z" />
    <glyph glyph-name="Lslash" unicode="&#x141;" horiz-adv-x="378" 
d="M150 813l143 160v-90l-143 -160v-662h215v-61h-297v633l-68 -76v90l68 76v756h82v-666z" />
    <glyph glyph-name="lslash" unicode="&#x142;" horiz-adv-x="192" 
d="M133 838l60 63v-98l-60 -64v-739h-74v657l-59 -67v98l59 68v723h74v-641z" />
    <glyph glyph-name="OE" unicode="&#x152;" horiz-adv-x="681" 
d="M428 61h211v-61h-254q-20 0 -70 -4t-73 -4q-82 0 -128 42t-46 118v1175q0 45 15.5 78t42 50t55 24.5t59.5 7.5q28 0 82 -4q50 -4 73 -4h230v-62h-197v-626h186v-62h-186v-668zM346 68v1345q-48 12 -90 12q-106 0 -106 -114v-1157q0 -49 26.5 -75t71.5 -26q76 0 98 15z
" />
    <glyph glyph-name="oe" unicode="&#x153;" horiz-adv-x="569" 
d="M453 561v344q0 70 -64 70q-63 0 -63 -70v-344h127zM453 342h73v-227q0 -55 -34.5 -89t-102.5 -34q-77 0 -104 55q-38 -55 -101 -55q-64 0 -102.5 36.5t-38.5 96.5v778q0 66 37.5 99.5t103.5 33.5q68 0 103 -53q30 53 102 53q69 0 103 -32t34 -91v-413h-200v-377
q0 -70 63 -70q64 0 64 70v219zM252 127v776q0 72 -68 72q-67 0 -67 -72v-776q0 -74 67 -74q68 0 68 74z" />
    <glyph glyph-name="Scaron" unicode="&#x160;" horiz-adv-x="428" 
d="M113 412v-269q0 -90 94 -90q53 0 76.5 21.5t23.5 72.5v254q0 55 -9.5 95.5t-33.5 95.5l-172 326q-53 100 -53 200v215q0 72 46 113t124 41q85 0 126.5 -33t41.5 -104v-265h-74v256q0 84 -88 84q-41 0 -64.5 -25t-23.5 -63v-229q0 -71 33 -141l168 -322q61 -122 61 -223
v-279q0 -74 -41.5 -112.5t-134.5 -38.5q-92 0 -133 40t-41 118v262h74zM184 1571l-94 196h62l63 -135l64 135h61l-94 -196h-62z" />
    <glyph glyph-name="scaron" unicode="&#x161;" horiz-adv-x="342" 
d="M37 342h74v-227q0 -30 16.5 -46t44.5 -16q27 0 43 16t16 46v176q0 49 -4 77.5t-20 53.5l-121 199l-23 38q-26 48 -26 117v146q0 50 34 82t99 32q131 0 131 -118v-179h-74v166q0 70 -57 70q-59 0 -59 -70v-139q0 -59 28 -102l37 -62l96 -151q33 -54 33 -134v-204
q0 -56 -36 -88.5t-101 -32.5q-60 0 -95.5 28.5t-35.5 79.5v242zM141 1212l-94 197h62l63 -135l64 135h61l-94 -197h-62z" />
    <glyph glyph-name="Ydieresis" unicode="&#x178;" 
d="M211 678l127 801h82l-170 -895v-584h-82v584l-170 895h82l127 -801h4zM260 1661v106h90v-106h-90zM68 1661v106h90v-106h-90z" />
    <glyph glyph-name="Zcaron" unicode="&#x17d;" horiz-adv-x="342" 
d="M0 0v82l250 1335h-227v62h301v-82l-250 -1336h268v-61h-342zM141 1571l-94 196h62l63 -135l64 135h61l-94 -196h-62z" />
    <glyph glyph-name="zcaron" unicode="&#x17e;" horiz-adv-x="266" 
d="M6 0v82l182 885h-170v61h242v-90l-182 -877h182v-61h-254zM102 1212l-94 197h62l63 -135l64 135h61l-94 -197h-62z" />
    <glyph glyph-name="florin" unicode="&#x192;" horiz-adv-x="458" 
d="M111 856l2 62h80l20 428q4 86 34 113.5t101 27.5h19v-62h-29q-26 0 -37 -19t-14 -81l-21 -407h80l-2 -62h-78l-45 -975q-3 -63 -31.5 -84.5t-91.5 -21.5h-32v61h16q33 0 48.5 12t16.5 39l46 969h-82z" />
    <glyph glyph-name="circumflex" unicode="&#x2c6;" horiz-adv-x="192" 
d="M-29 1212l95 197h61l94 -197h-61l-64 136l-63 -136h-62z" />
    <glyph glyph-name="caron" unicode="&#x2c7;" horiz-adv-x="192" 
d="M66 1212l-95 197h62l63 -135l64 135h61l-94 -197h-61z" />
    <glyph glyph-name="breve" unicode="&#x2d8;" horiz-adv-x="192" 
d="M-39 1376h45v-10q0 -29 24.5 -48.5t65.5 -19.5t65.5 19.5t24.5 48.5v10h45v-10q0 -63 -36 -96t-99 -33t-99 33t-36 96v10z" />
    <glyph glyph-name="dotaccent" unicode="&#x2d9;" horiz-adv-x="192" 
d="M51 1303v106h90v-106h-90z" />
    <glyph glyph-name="ring" unicode="&#x2da;" horiz-adv-x="192" 
d="M-14 1296q0 46 32.5 79.5t77.5 33.5q46 0 78.5 -33.5t32.5 -79.5t-32.5 -78t-78.5 -32t-78 32t-32 78zM31 1296q0 -28 18.5 -46.5t46.5 -18.5t47 18.5t19 46.5t-19 48t-47 20q-27 0 -46 -20t-19 -48z" />
    <glyph glyph-name="ogonek" unicode="&#x2db;" horiz-adv-x="192" 
d="M270 -178v-37q-36 -4 -59 -4q-40 0 -66 23.5t-26 66.5q0 32 1.5 51t12 49t31.5 54h41q-33 -47 -33 -138q0 -27 13 -48t28 -21q34 0 57 4z" />
    <glyph glyph-name="tilde" unicode="&#x2dc;" horiz-adv-x="192" 
d="M-12 1249h-45v15q0 41 16.5 76.5t56.5 35.5q25 0 76 -30q8 -4 20.5 -10.5t20 -10.5t17 -7t16.5 -3q20 0 29.5 17t9.5 38v10h45v-14q0 -41 -17 -77t-57 -36q-22 0 -82 31q-52 31 -71 31q-18 0 -26.5 -17.5t-8.5 -35.5v-13z" />
    <glyph glyph-name="hungarumlaut" unicode="&#x2dd;" horiz-adv-x="192" 
d="M-82 1212l82 197h90l-119 -197h-53zM102 1212l82 197h90l-118 -197h-54z" />
    <glyph glyph-name="endash" unicode="&#x2013;" horiz-adv-x="1024" 
d="M0 487v54h1024v-54h-1024z" />
    <glyph glyph-name="emdash" unicode="&#x2014;" horiz-adv-x="2048" 
d="M0 487v54h2048v-54h-2048z" />
    <glyph glyph-name="quoteleft" unicode="&#x2018;" horiz-adv-x="229" 
d="M45 1159l78 320h61l-49 -320h-90z" />
    <glyph glyph-name="quoteright" unicode="&#x2019;" horiz-adv-x="229" 
d="M45 1159l49 320h90l-78 -320h-61z" />
    <glyph glyph-name="quotesinglbase" unicode="&#x201a;" horiz-adv-x="229" 
d="M45 -213l49 319h90l-78 -319h-61z" />
    <glyph glyph-name="quotedblleft" unicode="&#x201c;" horiz-adv-x="342" 
d="M182 1159l78 320h62l-50 -320h-90zM20 1159l78 320h62l-49 -320h-91z" />
    <glyph glyph-name="quotedblright" unicode="&#x201d;" horiz-adv-x="342" 
d="M20 1159l50 320h90l-78 -320h-62zM182 1159l49 320h91l-78 -320h-62z" />
    <glyph glyph-name="quotedblbase" unicode="&#x201e;" horiz-adv-x="342" 
d="M20 -213l50 319h90l-78 -319h-62zM182 -213l49 319h91l-78 -319h-62z" />
    <glyph glyph-name="dagger" unicode="&#x2020;" horiz-adv-x="454" 
d="M197 0v1184h-185v61h185v234h61v-234h184v-61h-184v-1184h-61z" />
    <glyph glyph-name="daggerdbl" unicode="&#x2021;" horiz-adv-x="454" 
d="M197 0v274h-185v62h185v840h-185v61h185v242h61v-242h184v-61h-184v-840h184v-62h-184v-274h-61z" />
    <glyph glyph-name="bullet" unicode="&#x2022;" horiz-adv-x="1024" 
d="M141 739q0 154 108.5 262.5t262.5 108.5t262.5 -108.5t108.5 -262.5t-108.5 -262t-262.5 -108t-262.5 108t-108.5 262z" />
    <glyph glyph-name="ellipsis" unicode="&#x2026;" horiz-adv-x="2048" 
d="M297 0v106h90v-106h-90zM979 0v106h90v-106h-90zM1661 0v106h90v-106h-90z" />
    <glyph glyph-name="perthousand" unicode="&#x2030;" horiz-adv-x="833" 
d="M618 74v610q0 39 25 60.5t68 21.5q86 0 92 -82v-610q0 -39 -24.5 -60.5t-67.5 -21.5t-68 21.5t-25 60.5zM750 80v598q0 43 -39 43t-39 -43v-598q0 -43 39 -43t39 43zM31 795v610q0 39 24.5 60.5t67.5 21.5q86 0 92 -82v-610q0 -39 -24.5 -60.5t-67.5 -21.5t-67.5 21.5
t-24.5 60.5zM162 801v598q0 43 -39 43t-39 -43v-598q0 -43 39 -43t39 43zM354 74v610q0 39 24.5 60.5t67.5 21.5q87 0 93 -82v-610q0 -39 -25 -60.5t-68 -21.5t-67.5 21.5t-24.5 60.5zM485 80v598q0 43 -39 43q-38 0 -38 -43v-598q0 -43 38 -43q39 0 39 43zM119 -72
l276 1622h58l-277 -1622h-57z" />
    <glyph glyph-name="guilsinglleft" unicode="&#x2039;" horiz-adv-x="229" 
d="M143 0l-110 514l110 514h54l-91 -514l91 -514h-54z" />
    <glyph glyph-name="guilsinglright" unicode="&#x203a;" horiz-adv-x="229" 
d="M33 0l90 514l-90 514h53l111 -514l-111 -514h-53z" />
    <glyph glyph-name="fraction" unicode="&#x2044;" horiz-adv-x="342" 
d="M4 -72l277 1622h57l-277 -1622h-57z" />
    <glyph glyph-name="Euro" unicode="&#x20ac;" horiz-adv-x="458" 
d="M459 1417l-17 -78q-15 45 -57 68q-30 18 -76 18q-54 0 -82 -22q-13 -9 -19 -22.5t-6.5 -21.5t-0.5 -26v-440h164l-13 -62h-151v-143h127l-13 -61h-114v-482q0 -41 26 -67q25 -25 84 -25q46 0 80 19q32 19 55 49v-82q-35 -26 -55 -33q-34 -14 -82 -14q-81 0 -123 28
q-59 40 -59 132v475h-127l12 61h115v143h-127l12 62h115v434q0 40 9.5 69t39.5 54q45 37 133 37q51 0 94 -21q36 -18 56 -49z" />
    <glyph glyph-name="trademark" unicode="&#x2122;" horiz-adv-x="2027" 
d="M428 635v782h-295v62h651v-62h-295v-782h-61zM1698 635v782h-12l-334 -782h-45l-334 782h-12v-782h-62v844h107l323 -746l324 746h106v-844h-61z" />
    <glyph glyph-name="minus" unicode="&#x2212;" horiz-adv-x="1228" 
d="M96 487v62h1037v-62h-1037z" />
    <glyph glyph-name="fi" unicode="&#xfb01;" 
d="M285 0v1028h73v-1028h-73zM276 1303v106h91v-106h-91zM68 0v967h-58v61h58v350q0 55 25 78t77 23h47v-62h-33q-43 0 -43 -57v-332h76v-61h-76v-967h-73z" />
    <glyph glyph-name="fl" unicode="&#xfb02;" 
d="M285 0v1479h73v-1479h-73zM68 0v967h-58v61h58v350q0 55 25 78t77 23h47v-62h-33q-43 0 -43 -57v-332h76v-61h-76v-967h-73z" />
    <glyph glyph-name="oldcurrency" horiz-adv-x="458" 
d="M-2 535l55 55q-55 58 -55 149q0 86 55 150l-55 55l25 25l55 -56q66 56 149 56q91 0 150 -56l55 56l25 -25l-56 -55q56 -66 56 -150q0 -80 -56 -149l56 -55l-25 -25l-55 55q-65 -55 -150 -55t-149 55l-55 -55zM43 739q0 -77 53.5 -130.5t130.5 -53.5q75 0 130 54t55 130
q0 75 -55 130t-130 55q-76 0 -130 -55t-54 -130z" />
    <glyph glyph-name="hyphenminus" horiz-adv-x="227" 
d="M18 487v54h191v-54h-191z" />
    </font>
</defs>
</svg>
